# xmcd
# 
# Track frame offsets:
#     150
#     14940
#     28862
#     44979
#     55896
#     70613
#     86332
#     101802
#     113524
#     125206
#     137538
#     152497
#     166647
#     177899
#     191748
#     205153
#     219415
#     234617
#     248859
#     261153
# 
# Disc length: 3697
# 
# Revision: 6
# Processed by: cddbd v1.5.2PL0 Copyright (c) Steve Scherf et al.
# Submitted via: BonkEnc v1.0.8
# 
DISCID=200e6f14
DTITLE=Benny Goodman - Jazz Masters
DYEAR=2005
DGENRE=Jazz
TTITLE0=Sugar
TTITLE1=Dizzy Spells
TTITLE2=It's The Dreamer In Me
TTITLE3=Lullaby In Rhythm
TTITLE4=I Never Knew
TTITLE5=That Feeling Is Gone
TTITLE6=Sweet Sue, Just You
TTITLE7=I Let A Song Go Out Of My Heart
TTITLE8=Feelin' High And Happy
TTITLE9=Why'd Ya Make Me Fall In Love
TTITLE10=Don't Wake Up My Heart
TTITLE11=(I've Been) Saving Myself For You
TTITLE12=Big John Special
TTITLE13=My Melancholy Baby
TTITLE14=Wrappin' It Up
TTITLE15=What Goes On Here In My Heart
TTITLE16=A Little Kiss At Twilight
TTITLE17=The Flat Foot Floogee
TTITLE18=I've Got A Date With A Dream
TTITLE19=Could You Pass In Love?
EXTD=YEAR: 2005
EXTT0=
EXTT1=
EXTT2=
EXTT3=
EXTT4=
EXTT5=
EXTT6=
EXTT7=
EXTT8=
EXTT9=
EXTT10=
EXTT11=
EXTT12=
EXTT13=
EXTT14=
EXTT15=
EXTT16=
EXTT17=
EXTT18=
EXTT19=
PLAYORDER=
